<svg width="423" height="409" viewBox="0 0 423 409" fill="none" xmlns="http://www.w3.org/2000/svg">
<path fill-rule="evenodd" clip-rule="evenodd" d="M376.912 354.174C359.27 323.171 335.607 294.464 312.841 267.119C319.568 268.96 328.444 267.525 334.576 264.474C341.466 261.047 344.954 255.085 347.741 248.196C348.137 247.219 350.726 237.146 352.617 237.688C356.098 238.69 357.102 260.899 357.477 263.613C358.816 273.302 360.886 282.795 363.056 292.33C367.737 312.882 372.826 333.492 376.912 354.174ZM301.568 248.931C296.648 249.276 292.93 242.318 289.758 238.724C295.07 238.519 317.739 232.249 320.448 237.661C324.85 246.465 306.052 248.604 301.568 248.931ZM190.951 81.1113C190.93 84.0479 190.929 95.3801 186.348 91.8661C183.248 89.4858 181.558 78.8271 180.597 75.5576C178.636 68.8958 175.623 60.6892 175.967 53.6587C176.62 40.3529 185.348 49.431 187.339 56.5287C189.536 64.3544 190.988 72.9538 190.951 81.1113ZM225.956 139.401C231.746 135.773 229.422 142.544 227.246 145.773C221.126 154.859 219.772 144.333 225.956 139.401ZM212.917 108.283C211.692 101.682 212.3 92.7241 214.185 86.4131C215.665 81.4559 220.4 76.839 223.304 83.1727C225.716 88.431 221.154 102.253 218.722 107.426C216.745 111.633 214.029 115.208 212.917 108.283ZM187.768 110.305C188.851 122.973 177.824 127.61 178.185 113.147C178.408 104.298 185.833 97.7624 187.768 110.305ZM211.086 186.649C211.426 191.906 200.379 210.297 199.583 200.149C199.356 197.255 210.499 181.912 211.086 186.649ZM178.691 168.92C174.911 171.371 164.529 179.558 160.6 177.902C154.321 175.253 161.49 167.83 164.28 165.921C167.328 163.834 175.681 158.724 179.882 159.365C187.587 160.545 182.587 166.15 178.691 168.92ZM121.938 93.1727C112.565 97.1679 109.269 86.0077 107.246 79.3436C105.923 74.9843 101.248 65.8684 106.158 62.7565C114.985 57.1566 124.836 85.9476 121.938 93.1727ZM153.004 94.4863C151.573 90.0143 150.457 85.4459 149.056 80.9661C148.221 78.302 143.855 68.9198 144.381 66.6898C146.045 59.6146 151.76 63.1482 155.083 68.3347C158.493 73.6598 162.058 84.7685 161.699 90.8784C161.366 96.5454 156.075 103.131 153.004 94.4863ZM135.715 47.4569C133.255 39.6775 138.574 33.1368 144.672 41.8046C151.572 51.6071 141.088 61.9695 135.715 47.4569ZM149.206 184.969C149.563 192.084 125.443 202.809 119.991 199.531C112.813 195.217 127.554 189.849 131.651 187.719C135.113 185.923 148.196 176.813 149.206 184.969ZM106.454 174.362C100.333 176.085 94.0581 178.479 87.7619 179.343C79.1143 180.527 79.1876 175.674 85.6582 170.575C91.3129 166.119 101.888 165.042 108.636 162.344C114.027 160.188 129.664 147.839 133.566 151.663C142.358 160.279 112.233 172.678 106.454 174.362ZM108.087 202.091C108.331 211.763 82.7186 215.003 76.9915 215.568C80.8345 212.834 106.336 188.754 108.087 202.091ZM59.6172 153.323C42.2588 152.745 59.6982 140.108 65.5487 137.774C69.795 136.077 79.7878 132.308 84.1077 135.861C95.4435 145.185 64.0822 153.493 59.6172 153.323ZM61.588 117.975C61.9856 111.979 90.8753 102.944 92.5077 108.431C93.7931 112.752 62.9738 130.557 61.588 117.975ZM103.147 125.209C114.608 117.357 130.124 124.735 112.941 133.84C109.569 135.624 100.743 140.443 97.0027 137.696C91.72 133.817 100.112 127.167 103.147 125.209ZM419.312 151.607C416.471 146.577 412.38 139.55 407.674 144.294C405.845 146.134 403.961 153.82 402.724 156.706C398.388 166.807 393.781 178.085 384.642 184.851C379.172 188.899 360.11 195.436 364.893 183.08C368.97 172.538 382.48 163.204 390.627 155.557C394.403 152.011 403.367 144.733 405.333 139.589C406.831 135.667 403.226 126.438 396.756 128.522C393.819 129.469 393.439 138.053 392.365 140.498C390.666 144.357 387.667 147.382 385.016 150.59C380.814 155.678 376.371 163.136 369.779 165.532C361.853 168.418 359.404 163.777 363.479 156.659C367.465 149.703 376.471 145.225 381.98 139.515C384.721 136.673 393.354 128.361 391.258 124.112C386.693 114.86 380.318 128.394 378.049 131.145C376.271 133.297 365.482 147.187 362.115 144.533C358.068 141.346 367.131 128.505 368.8 125.762C372.32 119.973 373.859 120.298 369.402 117.206C366.856 115.436 361.55 113.919 358.736 114.319C351.829 115.299 344.763 121.674 337.642 123.364C334.695 124.065 324.655 123.907 323.439 128.42C321.565 135.365 351.768 152.01 335.855 155.799C323.555 158.722 311.992 139.675 301.882 147.511C285.904 159.898 311.276 167.435 321.023 170.003C325.393 171.156 339.784 171.656 337.682 179.384C335.971 185.667 324.039 184.281 319.439 183.509C310.724 182.051 302.835 177.831 294.686 174.696C292.488 173.853 283.65 169.058 280.999 170.09C277.203 171.575 272.603 186.399 274.814 189.894C277.54 194.197 292.519 192.696 297.583 192.806C306.141 192.988 316.635 192.679 323.927 198.009C331.979 203.893 322.026 204.811 316.526 204.573C304.658 204.057 292.544 199.86 280.915 197.585C276.859 196.789 270.82 194.628 266.789 195.182C260.686 196.025 261.972 196.448 264.481 201.432C270.077 212.555 275.759 213.807 288.139 214.67C293.786 215.061 318.493 211.811 320.436 219.346C314.366 224.125 299.641 221.511 292.477 221.41C287.235 221.334 278.738 222.542 274.181 220.008C267.976 216.55 260.128 203.657 255.579 198.482C247.51 189.303 239.567 180.17 230.735 171.688C240.372 173.055 249.397 176.109 259.16 173.697C269.832 171.058 280.061 163.928 281.637 152.457C282.213 148.259 281.514 143.951 281.214 139.765C281.116 138.428 281.181 137.054 281.021 135.72C280.322 129.922 280.805 128.033 276.821 132.23C272.288 137.005 269.141 147.876 261.347 149.897C252.718 152.137 257.346 145.671 260.854 141.895C269.517 132.57 278.993 124.457 280.427 110.65C281.209 103.12 280.771 94.8565 279.41 87.3468C278.101 80.1293 276.798 80.3487 274.358 86.2616C269.063 99.0868 260.808 109.653 249.834 118.229C247.731 119.874 243.014 123.899 239.839 121.621C236.965 119.561 239.053 115.664 239.835 112.718C241.557 106.211 244.039 100.179 246.484 93.9238C249.704 85.6842 255.307 74.5682 255.535 65.6935C255.685 59.9309 251.016 57.4563 246.892 53.8451C242.07 49.6202 237.744 45.1194 234.004 39.8993C231.397 36.2629 228.588 30.8075 224.663 28.4182C218.57 24.7074 219.935 29.3369 220.395 33.9673C220.763 37.6661 226.112 74.1968 217.445 72.3195C208.844 70.4595 212.465 36.0784 211.272 28.5315C209.689 18.5336 195.805 19.8914 187.404 18.0656C182.974 17.1003 178.914 16.5955 174.712 14.9614C173.121 14.3428 171.317 11.6451 169.53 12.4581C165.47 14.3014 181.841 29.3374 177.587 34.6661C170.405 43.6627 163.159 19.9034 161.103 15.5697C159.375 11.9246 157.311 7.6556 154.889 4.48727C151.145 -0.405457 150.639 0.7757 145.129 2.41573C139.618 4.05576 126.458 3.91488 122.296 7.55813C118.273 11.0822 123.407 13.6669 126.195 16.8711C128.836 19.9034 137.394 30.1925 130.181 32.3248C127.576 33.0951 118.123 25.4026 115.675 23.821C110.477 20.4606 111.598 21.2262 107.234 22.3279C102.163 23.6052 96.4549 25.2453 91.5765 26.9727C85.4586 29.1404 84.0016 30.1692 88.5867 34.5524C93.9642 39.6873 102.015 42.78 104.663 50.1268C105.951 53.2999 105.103 56.8486 101.096 56.912C96.8206 56.9812 94.8754 51.1456 93.2303 48.0181C91.1457 44.0598 87.2338 34.7498 82.1603 33.9186C78.9893 33.3989 75.0774 37.2281 72.3949 38.6182C70.8066 39.4401 63.6558 41.5746 63.0797 43.7807C62.4483 46.2034 70.6964 51.455 72.9327 54.0382C78.639 60.6282 84.7027 68.7699 86.861 76.7012C88.5272 89.6489 73.5355 73.9161 71.1723 69.9893C68.5503 65.6351 60.1359 43.1235 52.6035 45.4035C50.5524 46.0248 49.2853 51.0229 47.6069 52.6587C45.5506 54.6624 42.9108 55.4684 40.4424 56.7123C36.7832 58.5579 33.121 60.4022 29.6142 62.4884C28.5304 63.1324 25.584 65.0056 24.9969 65.4303C24.5548 65.7519 23.5767 65.5402 23.0396 65.944C19.371 68.7065 17.6587 74.2941 14.3126 77.6532C12.8112 79.1607 6.13627 83.2764 6.62727 85.4117C7.07437 87.3577 38.8512 88.884 43.6117 89.4118C47.2318 89.8122 62.4331 89.178 64.2896 92.715C66.1044 96.175 63.0322 97.3929 60.0426 98.5386C52.6235 101.382 43.2748 102.055 35.467 103.452C29.9514 104.438 7.3627 105.843 4.43642 111.325C1.41549 116.985 5.08891 120.86 9.30419 121.636C13.9185 122.49 20.5827 120.542 25.0925 119.891C28.7657 119.361 52.2129 113.551 53.4184 118.957C54.7285 124.839 26.6976 129.774 23.9225 130.52C18.6192 131.947 9.67008 132.202 4.99027 134.927C0.796365 137.374 2.36271 137.658 3.52807 141.675C7.55284 155.557 8.98255 152.843 21.2565 149.724C25.9553 148.529 31.9903 146.394 36.4736 148.97C41.8304 152.042 41.5395 155.891 36.7487 158.542C33.4569 160.366 26.5859 160.796 22.8996 161.334C18.5908 161.965 14.2246 162.183 9.87463 162.231C8.59607 162.246 3.0014 161.317 1.78308 162.14C-3.0033 165.37 8.57392 182.194 13.5714 182.85C15.9972 183.169 19.9388 181.514 22.3467 181.048C30.7616 179.409 39.3201 178.541 47.7666 176.983C52.5232 176.107 74.7921 169.595 70.8023 181.13C68.5969 187.501 52.488 190.714 47.1449 192.534C42.0039 194.286 36.8493 195.848 31.5998 197.24C26.6954 198.54 23.8388 198.007 27.1052 203.434C30.4305 208.957 50.2342 225.807 56.4519 225.273C61.5534 224.832 59.6576 222.473 65.3818 225.877C67.4827 227.13 69.6135 229.191 71.4357 230.812C78.4347 237.027 85.6295 245.994 95.4013 247.732C116.288 251.451 144.811 223.505 158.296 210.525C160.976 207.947 171.216 195.298 176.2 198.125C181.438 201.093 172.351 212.904 170.546 215.17C160.488 227.811 147.954 239.943 133.061 246.519C129.094 248.269 117.98 249.949 114.221 253.041C110.493 256.105 114.307 257.092 118.264 259.699C126.704 265.253 137.986 273.446 148.359 270.042C162.016 265.559 169.345 251.234 176.982 239.99C181.219 233.756 201.07 204.3 201.333 227.397C201.46 238.895 194.174 252.057 186.337 259.964C184.872 261.44 175.398 266.161 175.597 267.284C175.9 268.988 181.579 269.719 182.616 269.942C192.668 272.104 222.86 275.05 227.093 262.107C229.998 253.227 226.459 239.038 225.211 230.108C224.821 227.334 222.879 222.877 226.866 221.994C231.972 220.863 236.349 238.703 236.732 241.53C237.519 247.342 236.643 253.399 234.44 259.395C233.472 262.029 230.818 264.382 234.28 264.794C235.535 264.942 242.557 258.258 243.658 257.142C249.258 251.442 249.638 245.022 249.18 237.465C247.936 217.072 238.45 197.19 227.416 180.23C240.609 193.914 253.197 208.082 265.378 222.678C268.422 226.325 270.562 230.786 273.565 234.306C277.898 239.38 283.232 243.507 287.74 248.925C286.413 248.791 274.92 245.695 274.587 248.826C274.285 251.675 284.032 256.088 286.029 257.143C295.017 261.903 298.555 262.319 305.621 270.939C323.205 292.395 339.271 314.639 355.008 337.461C362.699 348.615 370.799 359.605 377.571 371.353C380.969 377.245 383.695 383.535 386.279 389.818C388.056 394.139 390.288 407.183 395.826 408.568C402.264 410.18 400.687 403.094 399.379 399.754C396.43 392.227 394.286 384.898 392.187 377.041C388.774 364.262 386.204 351.275 382.474 338.569C377.819 322.713 373.985 306.727 370.146 290.662C367.654 280.235 365.512 269.633 363.909 259.028C362.808 251.745 363.084 243.945 361.13 236.808C368.739 243.665 367.258 256.054 379.963 256.94C389.782 257.626 396.877 249.701 402.494 242.708C407.074 237.005 413.658 228.386 414.547 220.893C415.607 211.952 408.114 218.347 402.53 220.284C398.926 221.536 388.99 227.252 386.025 223.839C381.878 219.063 396.678 212.856 399.539 211.037C405.833 207.041 412.812 202.185 417.606 196.328C419.499 194.013 427.342 168.876 418.64 172.291C417.536 172.724 415.998 176.238 415.108 177.474C410.977 183.204 406.285 188.374 401.221 193.286C395.701 198.637 383.651 211.23 374.448 208.503C378.178 197.209 393.796 191.321 402.238 183.916C407.664 179.16 412.361 173.905 415.587 167.385C417.19 164.141 421.267 155.055 419.312 151.607Z" fill="#02362C"/>
</svg>
