<svg width="292" height="213" fill="none" xmlns="http://www.w3.org/2000/svg"><path fill-rule="evenodd" clip-rule="evenodd" d="M103.264 161.374c-1.12 1.86-.396 4.871-.099 6.862-.27-4.885 3.092-10.384 4.902-14.734 1.76-4.233 3.229-8.6 4.275-13.073.024-.097 2.231-10.08-1.014-8.174-9.022 5.248-3.201 21.775-8.064 29.119ZM99.38 85.727c2.737 3.602 16.55 20.551 21.557 14.956 3.984-4.453-4.211-15.126-7.643-17.518-5.717-3.978-11.848-7.227-17.328-11.588.614 5.099.117 9.844 3.414 14.15ZM245.035 88.6c4.413-.658 8.839-1.343 13.192-2.323-5.053.746-10.049 1.353-15.006 2.62l1.814-.297ZM11.224 169.855c-.925-2.335 4.224-6.287 5.436-7.573 3.322-3.53 6.74-7.454 7.33-12.125 1.085-3.665-7.495-1.76-10.088-2.199-1.817-.308-6.275-1.343-7.205-3.218-1.994-4.018 4.407-6.189 7.2-7.502 4.091-1.923 6.296-2.416 1.945-4.234-4.677-1.953-14.64-1.712-15.758-8.564-.95-5.836 8.833-8.259 12.717-9.152 7.317-1.691 13.839-.63 20.709 2.142 1.602.646 11.306 4.073 10.658 1.672-2.068-5.249-9.093-6.206-11.83-11.002-1.555-2.727-1.628-5.26-3.604-7.946-1.95-2.652-5.961-6.535-4.118-10.302 1.172-2.39 3.95-2.786 6.056-2.052 5.12 1.407 8.562 4.653 13.078 7.214 3.304 1.872 7.035 1.17 9.927 3.957 4.367 4.317 8.752 9.175 13.578 13.198 1.513 1.261 8.589 6.684 9.038 2.522.253-2.344-6.992-6.362-8.171-7.227-2.817-2.069-5.832-3.789-7.36-7.125-.875-1.913-.434-3.967-1.13-5.454-2.057-4.398-8.002-7.691-10.642-11.877-2.37-3.757-7.88-13.257-6.283-17.8 2.185-6.222 8.517.341 11.623 2.664 3.437 2.573 6.425 5.17 10.204 6.96 3.335 1.583 5.767 3.324 8.124 6.355 4.356 5.599 7.258 11.874 10.758 17.768a.542.542 0 0 1-.045-.055c2.098 3.387 5.082 6.937 8.683 8.862 6.038 3.227 4.245-.584 1.295-4.743-4.446-6.27-9.867-11.848-14.331-18.085-1.59-2.222-3.101-4.653-3.332-7.466-.155-1.887 1.047-3.4 1.087-4.77.147-4.763-14.443-31.233-4.478-32.85 5.381-.874 8.69 11.132 10.459 14.296 2.827 5.054 4.227 9.472 9.492 12.237-.491-2.259 1.4-3.85 1.113-5.818-.343-2.341-2.794-4.387-4.13-6.177-3.673-4.92-7.058-10.159-9.38-15.837-7.086-17.325 11.36-4.227 17.203.522a400.53 400.53 0 0 0 3.85 3.074c3.379 2.665 4.481 2.162 8.039 3.552 6.052 2.366 9.487 13.19 11.454 18.895.609 1.76 10.971 29.49 14.956 22.367 2.01-3.593-4.52-15.502-6.631-18.977-3.247-5.345-11.702-12.69-11.046-19.422.206-2.115 1.828-3.005 2.126-4.901.699-4.429-3.474-10.177-4.567-14.323-2.222-8.438 2.356-14.492 8.415-4.954 2.397 3.775 4.173 5.994 7.272 9.273 3.535 3.74 3.455 8.888 6.139 12.863 2.22 3.285 1.916.032 5.509 2.33 2.983 1.91 3.52 8.613 3.9 11.842.526 4.485.177 23.094 6.555 23.17 5.814.068 4.074-11.928 3.368-15.277-1.766-8.38-7.206-14.516-11.847-21.382-2.263-3.347-5.07-7.306-6.173-11.248-.965-3.456.169-6.072.583-9.404.484-3.88 1.374-21.71 9.644-15.983 5.556 3.848 3.583 13.607 8.526 17.89.532-4.6-2.333-16.575 4.106-18.63 6.216-1.984 9.377 11.097 10.933 15.432.953 2.659 3.088 18.272 6.351 19.955 3.406 1.757 4.482-2.758 5.348-5.223 1.483-4.215 13.14-42.913 19.929-38.703 5.266 3.262-4.216 15.192-2.184 18.656.747 1.273 2.083.25 3.409.712 4.862 1.695 5.747 4.164 3.523 9.017 12.956 1.79-1.05 12.912-5.562 16.767-3.074 2.625-16.463 13.614-10.018 18.725 2.167 1.719 8.22-.044 10.927.644 5.22 1.33 6.018 6.217 1.971 9.63-2.784 2.35-6.989 3.494-10.536 3.962-2.036.27-7.754-.504-9.147 1.13 7.645 4.267 1.147 6.37-4.465 8.474-4.197 1.575-15.205 5.17-15.223 11.181 6.911-.636 13.591-3.136 20.421-4.255 7.48-1.222 14.73-2.81 22.314-4.834 14.381-3.842 29.582-7.228 44.26-9.413 7.18-1.07 14.323-2.6 21.425-4.097 2.561-.541 15.665-5.696 16.717-.559 1.422 6.95-18.721 5.667-22.425 7.843-26.542 5.068-52.799 11.667-79.398 16.065 2.37.572 7.635 4.585 5.743 7.567 2.073.258 5.857-.407 7.451 1.207 3.525 3.574-1.241 3.045-1.923 4.76-1.165 2.93 4.966 3.578 7.227 4.243 10.542 3.097 20.822 8.578 30.611 13.549 5.37 2.73 17.127 15.546 6.644 19.287-5.232 1.869-13.121-2.274-17.549-4.573-2.795-1.449-9.579-7.122-13.031-6.623-.196 4.084 4.989 12.182 6.456 15.744 3.103 7.53 4.479 13.328.62 20.952-9.166 18.115-16.471-14.684-19.039-13.362-1.807.932.763 16.222.992 18.18.509 4.338.677 16.737-5.961 17.335-5.568.501-7.869-10.544-9.128-14.162-1.056-3.034-3.157-6.075-3.962-9.567-.662-2.874-.202-5.928-.79-8.734-.612-2.918-3.04-4.499-3.773-7.782-.826-3.686-.78-8.007-1.265-11.814-.809-6.362-1.564-15.133-7.408-19.272-4.652 10.697 2.163 23.899 4.44 34.42 1.138 5.263 2.811 11.654-1.174 15.951-1.601 1.726-.733-.621-2.482 1.921-.392.571-.52 1.581-.726 2.237-1.47 4.706-2.304 9.552-3.648 14.284-.832 2.936-2.678 12.843-6.466 13.681-6.869 1.517-7.459-22.886-8.063-27.495-.455-3.486-.355-7.297-.961-10.692-.556-3.115-2.516-5.209-2.182-8.76.431-4.598 2.321-9.124 3.266-13.626 1.27-6.056 1.242-11.737.498-17.841-.308-2.527-.687-8.446-3.644-8.96-4.75-.822-3.701 8.729-3.747 11.233-.132 7.415 1.816 15.578-.172 23.671-2.054 8.373 2.763 16.139 2.02 24.527-.27 3.029-.949 4.423-2.88 6.645-2.146 2.474-3.244 3.599-4.341 7.346-.994 3.396-4.789 20.373-10.785 15.372-1.946-1.622-.988-5.272-.932-7.375.121-4.636-.017-9.288.217-13.92.149-2.941 1.022-6.275.282-9.191-.703-2.767-2.236-4.197-1.883-7.371.475-4.275 3.72-9.208 3.412-13.379-.292-3.977-1.79-7.868-1.69-12.165.081-3.419 3.301-21.162.661-22.182-5.363-2.077-5.714 19.838-5.775 21.506-.387 10.629.774 21.962.007 32.655-.259 3.594-2.047 5.446-3.183 8.227-1.51 3.693-1.277 8.62-2.508 12.549-.982 3.131-3.552 11.319-7.507 7.091-2.859-3.054-1.949-11.395-2.416-15.383-.525-4.507-1.373-8.916-1.381-13.466-.003-.98.397-2.898.116-3.781-.783-2.442-3.87-2.953-4.683-5.816.685 2.906.528 5.281-.935 7.813-.38.662-1.831 1.512-2.421 2.276-1.781 2.306-2.68 5.729-3.87 8.389-1.676 3.733-12.602 21.082-13.41 8.348-.345-5.444.235-10.994 1.02-16.366.616-4.22 2.224-9.276 1.58-13.519-.67-4.399-1.598-5.682.31-10.376 1.963-4.823 5.79-11.004 4.655-16.377-2.315-10.945-11.92 15.29-12.77 18.18-1.721 5.838-3.962 11.925-8.178 16.444-4.7 5.039-10.277 8.219-14.154 14.147-1.727 2.645-6.707 11.711-10.974 8.982-4.203-2.685 1.393-12.809 2.425-15.763 1.066-3.051 2.713-6.263 3.464-9.357.68-2.809.22-5.531.697-8.379 1.346-8.074 7.885-11.75 11.454-18.486 1.885-3.557 1.5-6.01-3.107-3.848-2.488 1.164-4.465 4.226-6.47 6.146-3.016 2.889-6.267 5.567-9.408 8.322-4.24 3.718-27.645 24.828-32.09 13.496Z" fill="#89B99A"/></svg>